<svg data-dc-tpl="217" viewBox="0 0 80 80" style="display: block; width: 104px; height: 104px; flex: 0 0 auto;"><g data-dc-tpl="218" fill="none" stroke="#C9A24D" stroke-width="1.1" stroke-linecap="round"><path data-dc-tpl="219" d="M30 26C26 6 6 2 5 14 4 24 8 34 18 36c6 1 11-4 12-10Z" fill="#C9A24D" fill-opacity=".1"></path><path data-dc-tpl="220" d="M30 26L10 10" stroke-width="0.75"></path><circle data-dc-tpl="221" cx="10" cy="10" r="1.4" fill="#C9A24D" stroke="none"></circle><path data-dc-tpl="222" d="M30 26L6 22" stroke-width="0.75"></path><circle data-dc-tpl="223" cx="6" cy="22" r="1.4" fill="#C9A24D" stroke="none"></circle><path data-dc-tpl="224" d="M30 26L14 32" stroke-width="0.75"></path><circle data-dc-tpl="225" cx="14" cy="32" r="1.4" fill="#C9A24D" stroke="none"></circle><path data-dc-tpl="226" d="M30 26L24 36" stroke-width="0.75"></path><circle data-dc-tpl="227" cx="24" cy="36" r="1.4" fill="#C9A24D" stroke="none"></circle><path data-dc-tpl="228" d="M30 26c5 3 8 7 9 12" stroke-width="1.2"></path><path data-dc-tpl="229" d="M44 24c5-9 15-11 19-6 4 6-3 12-7 8s2-9 6-6" stroke-width="0.9"></path><circle data-dc-tpl="230" cx="62" cy="20" r="1.5" fill="#C9A24D" stroke="none"></circle><circle data-dc-tpl="231" cx="34" cy="42" r="5.3" fill="#C9A24D" fill-opacity=".13" stroke-width="0.9"></circle><circle data-dc-tpl="232" cx="46" cy="42" r="5.3" fill="#C9A24D" fill-opacity=".13" stroke-width="0.9"></circle><circle data-dc-tpl="233" cx="40" cy="51" r="5.3" fill="#C9A24D" fill-opacity=".13" stroke-width="0.9"></circle><circle data-dc-tpl="234" cx="28" cy="51" r="5.3" fill="#C9A24D" fill-opacity=".13" stroke-width="0.9"></circle><circle data-dc-tpl="235" cx="52" cy="51" r="5.3" fill="#C9A24D" fill-opacity=".13" stroke-width="0.9"></circle><circle data-dc-tpl="236" cx="34" cy="60" r="5.3" fill="#C9A24D" fill-opacity=".13" stroke-width="0.9"></circle><circle data-dc-tpl="237" cx="46" cy="60" r="5.3" fill="#C9A24D" fill-opacity=".13" stroke-width="0.9"></circle><circle data-dc-tpl="238" cx="40" cy="69" r="5.3" fill="#C9A24D" fill-opacity=".13" stroke-width="0.9"></circle></g></svg>